Input #0, lavfi, from 'yuvtestsrc=duration=60:size=1920x1080:rate=30':
  Duration: N/A, start: 0.000000, bitrate: N/A
  Stream #0:0: Video: rawvideo (444P / 0x50343434), yuv444p, 1920x1080 [SAR 1:1 DAR 16:9], 30 tbr, 30 tbn, 30 tbc
Stream mapping:
  Stream #0:0 -> #0:0 (rawvideo (native) -> h264 (h264_nvenc))
Press [q] to stop, [?] for help
Output #0, mp4, to './test_results/temp_tests_gpu/test_test_50_18/output.mp4':
  Metadata:
    encoder         : Lavf58.76.100
  Stream #0:0: Video: h264 (High 4:4:4 Predictive) (avc1 / 0x31637661), yuv444p(tv, progressive), 1280x720 [SAR 1:1 DAR 16:9], q=2-31, 30 fps, 15360 tbn
    Metadata:
      encoder         : Lavc58.134.100 h264_nvenc
    Side data:
      cpb: bitrate max/min/avg: 3000000/0/0 buffer size: 4000000 vbv_delay: N/A
frame=    1 fps=0.0 q=0.0 size=       0kB time=00:00:00.00 bitrate=N/A speed=N/A    frame=    2 fps=1.7 q=0.0 size=       0kB time=00:00:00.00 bitrate=N/A speed=   0x    frame=  112 fps= 67 q=23.0 size=       0kB time=00:00:03.63 bitrate=   0.1kbits/s speed=2.19x    frame=  217 fps=100 q=23.0 size=       0kB time=00:00:07.13 bitrate=   0.1kbits/s speed= 3.3x    frame=  318 fps=119 q=23.0 size=       0kB time=00:00:10.50 bitrate=   0.0kbits/s speed=3.94x    frame=  418 fps=132 q=23.0 size=       0kB time=00:00:13.83 bitrate=   0.0kbits/s speed=4.37x    frame=  509 fps=139 q=23.0 size=       0kB time=00:00:16.86 bitrate=   0.0kbits/s speed= 4.6x    frame=  596 fps=143 q=23.0 size=       0kB time=00:00:19.76 bitrate=   0.0kbits/s speed=4.74x    frame=  695 fps=149 q=23.0 size=       0kB time=00:00:23.06 bitrate=   0.0kbits/s speed=4.94x    frame=  787 fps=151 q=23.0 size=       0kB time=00:00:26.13 bitrate=   0.0kbits/s speed=5.01x    frame=  866 fps=152 q=23.0 size=       0kB time=00:00:28.76 bitrate=   0.0kbits/s speed=5.04x    frame=  952 fps=153 q=23.0 size=       0kB time=00:00:31.63 bitrate=   0.0kbits/s speed=5.09x    frame= 1044 fps=155 q=23.0 size=       0kB time=00:00:34.70 bitrate=   0.0kbits/s speed=5.16x    frame= 1132 fps=157 q=23.0 size=       0kB time=00:00:37.63 bitrate=   0.0kbits/s speed=5.21x    frame= 1211 fps=157 q=23.0 size=       0kB time=00:00:40.26 bitrate=   0.0kbits/s speed=5.21x    frame= 1287 fps=156 q=23.0 size=       0kB time=00:00:42.80 bitrate=   0.0kbits/s speed= 5.2x    frame= 1375 fps=158 q=23.0 size=       0kB time=00:00:45.73 bitrate=   0.0kbits/s speed=5.24x    frame= 1457 fps=158 q=23.0 size=       0kB time=00:00:48.46 bitrate=   0.0kbits/s speed=5.25x    frame= 1538 fps=158 q=23.0 size=       0kB time=00:00:51.16 bitrate=   0.0kbits/s speed=5.26x    frame= 1623 fps=159 q=19.0 size=     256kB time=00:00:54.00 bitrate=  38.8kbits/s speed=5.28x    frame= 1718 fps=160 q=23.0 size=     256kB time=00:00:57.16 bitrate=  36.7kbits/s speed=5.32x    [mp4 @ 0x5a32c0bd07c0] Starting second pass: moving the moov atom to the beginning of the file
frame= 1800 fps=161 q=23.0 Lsize=     293kB time=00:00:59.96 bitrate=  40.1kbits/s speed=5.37x    
video:285kB audio:0kB subtitle:0kB other streams:0kB global headers:0kB muxing overhead: 2.801454%
